<svg version="1.1" xmlns="http://www.w3.org/2000/svg" xmlns:xlink="http://www.w3.org/1999/xlink" x="0px" y="0px"
	 viewBox="0 0 60 60" style="enable-background:new 0 0 60 60;" xml:space="preserve">
<g>
	<path d="M50.975,19.694c-0.527-9-7.946-16.194-16.891-16.194c-5.43,0-10.688,2.663-13.946,7.008
		c-0.075-0.039-0.155-0.066-0.231-0.103c-0.196-0.095-0.394-0.185-0.597-0.266c-0.118-0.047-0.238-0.089-0.358-0.131
		c-0.197-0.069-0.397-0.13-0.6-0.185c-0.12-0.032-0.239-0.065-0.36-0.093c-0.22-0.05-0.444-0.088-0.67-0.121
		c-0.105-0.016-0.209-0.036-0.315-0.048C16.676,9.523,16.341,9.5,16,9.5c-4.962,0-9,4.037-9,9c0,0.129,0.008,0.255,0.016,0.381
		C2.857,21.148,0,25.899,0,30.654C0,37.737,5.762,43.5,12.845,43.5H18c0.552,0,1-0.447,1-1s-0.448-1-1-1h-5.155
		C6.865,41.5,2,36.635,2,30.654c0-4.154,2.705-8.466,6.432-10.253L9,20.13V19.5c0-0.123,0.008-0.249,0.015-0.375l0.009-0.173
		L9.012,18.75C9.006,18.667,9,18.584,9,18.5c0-3.859,3.14-7,7-7c0.309,0,0.614,0.027,0.917,0.067
		c0.078,0.01,0.156,0.023,0.234,0.036c0.267,0.044,0.53,0.102,0.789,0.176c0.035,0.01,0.071,0.017,0.106,0.027
		c0.285,0.087,0.563,0.198,0.835,0.321c0.07,0.032,0.139,0.066,0.208,0.1c0.241,0.119,0.477,0.25,0.705,0.398
		C21.72,13.874,23,16.039,23,18.5c0,0.553,0.448,1,1,1s1-0.447,1-1c0-2.754-1.246-5.219-3.2-6.871
		C24.666,7.879,29.388,5.5,34.084,5.5c7.744,0,14.178,6.135,14.848,13.887c-1.022-0.072-2.553-0.109-4.083,0.125
		c-0.546,0.083-0.921,0.593-0.838,1.139c0.075,0.495,0.501,0.85,0.987,0.85c0.05,0,0.101-0.004,0.152-0.012
		c2.224-0.336,4.543-0.021,4.684-0.002C54.49,22.372,58,26.661,58,31.472C58,37.001,53.501,41.5,47.972,41.5H44
		c-0.552,0-1,0.447-1,1s0.448,1,1,1h3.972C54.604,43.5,60,38.104,60,31.472C60,25.983,56.173,21.06,50.975,19.694z"/>
	<path d="M38.293,34.207C38.488,34.402,38.744,34.5,39,34.5s0.512-0.098,0.707-0.293c0.391-0.391,0.391-1.023,0-1.414l-7.999-7.999
		c-0.092-0.093-0.203-0.166-0.326-0.217c-0.244-0.101-0.52-0.101-0.764,0c-0.123,0.051-0.233,0.124-0.326,0.217l-7.999,7.999
		c-0.391,0.391-0.391,1.023,0,1.414C22.488,34.402,22.744,34.5,23,34.5s0.512-0.098,0.707-0.293L30,27.914v25.172l-6.293-6.293
		c-0.391-0.391-1.023-0.391-1.414,0s-0.391,1.023,0,1.414l7.999,7.999c0.092,0.093,0.203,0.166,0.326,0.217
		C30.74,56.473,30.87,56.5,31,56.5s0.26-0.027,0.382-0.077c0.123-0.051,0.233-0.124,0.326-0.217l7.999-7.999
		c0.391-0.391,0.391-1.023,0-1.414s-1.023-0.391-1.414,0L32,53.086V27.914L38.293,34.207z"/>
</g>
</svg>
