<?xml version="1.0" encoding="iso-8859-1"?>
<!-- Generator: Adobe Illustrator 19.1.0, SVG Export Plug-In . SVG Version: 6.00 Build 0)  -->
<svg version="1.1" xmlns="http://www.w3.org/2000/svg" xmlns:xlink="http://www.w3.org/1999/xlink" x="0px" y="0px"
	 viewBox="0 0 462.088 462.088" style="enable-background:new 0 0 462.088 462.088;" xml:space="preserve">
<g>
	<g fill="#DB9560">
		<g>
			<path d="M417.041,202.182c-7.483,0-13.896-5.345-16.034-12.827
				c-18.172-80.171-88.723-136.826-172.101-136.826S74.977,109.184,56.805,189.355c-2.138,8.552-10.689,13.896-19.241,11.758
				s-13.896-10.689-11.758-19.241c21.379-95.137,105.826-161.411,203.1-161.411s181.721,66.275,203.1,161.411
				c2.138,8.552-3.207,17.103-11.758,19.241C419.179,201.113,418.11,202.182,417.041,202.182z"/>
		</g>
		<path d="M422.386,206.458c-2.138,0-4.276,0-6.414-1.069l-55.585-23.517
			c-8.552-3.207-11.758-12.827-8.552-21.379s12.827-11.758,21.379-8.552l40.62,17.103l17.103-40.62
			c3.207-8.552,12.827-11.758,21.379-8.552s11.758,12.827,8.552,21.379l-23.517,55.585c-2.138,4.276-4.276,7.483-8.552,8.552
			C426.662,206.458,424.524,206.458,422.386,206.458z"/>
		<g>
			<path d="M232.113,441.627c-97.274,0-181.721-66.275-203.1-161.411
				c-2.138-8.552,3.207-17.103,11.758-19.241s17.103,3.207,19.241,11.758c18.172,80.171,88.723,136.826,172.101,136.826
				s153.929-56.654,172.101-136.826c2.138-8.552,10.689-13.896,19.241-11.758s13.896,10.69,11.758,19.241
				C413.834,375.352,330.456,441.627,232.113,441.627z"/>
		</g>
		<path d="M16.185,343.284c-2.138,0-4.276,0-6.414-1.069c-8.552-3.207-11.758-12.827-8.552-21.379
			l23.517-55.585c3.207-8.552,12.827-11.758,21.379-8.552l55.585,23.517c8.552,3.207,11.758,12.827,8.552,21.379
			c-3.207,8.552-12.827,11.758-21.379,8.552l-40.62-17.103L31.15,332.594C29.013,339.008,22.599,343.284,16.185,343.284z"/>
	</g>
</g>
</svg>
